<svg version="1.1" xmlns="http://www.w3.org/2000/svg" viewBox="0 0 1065.0714285714282 913.1428571428571" width="1065.0714285714282" height="913.1428571428571">
  <!-- svg-source:excalidraw -->
  
  <defs>
    <style class="style-fonts">
      @font-face {
        font-family: "Virgil";
        src: url("https://excalidraw.com/Virgil.woff2");
      }
      @font-face {
        font-family: "Cascadia";
        src: url("https://excalidraw.com/Cascadia.woff2");
      }
    </style>
  </defs>
  <rect x="0" y="0" width="1065.0714285714282" height="913.1428571428571" fill="#ffffff"></rect><g stroke-linecap="round" transform="translate(10 214.5714285714286) rotate(0 515.7142857142857 344.2857142857142)"><path d="M32 0 M32 0 C273.68 0.99, 514.01 1.72, 999.43 0 M32 0 C404.31 2.53, 777.24 2.72, 999.43 0 M999.43 0 C1020.17 0.66, 1032.07 10.93, 1031.43 32 M999.43 0 C1020.31 -2.22, 1029.8 8.52, 1031.43 32 M1031.43 32 C1031.26 253.04, 1030.41 472.32, 1031.43 656.57 M1031.43 32 C1030.69 206.56, 1030.95 380.96, 1031.43 656.57 M1031.43 656.57 C1031.47 677.97, 1021.97 690.04, 999.43 688.57 M1031.43 656.57 C1032.78 675.78, 1022.93 688.4, 999.43 688.57 M999.43 688.57 C646.13 688.72, 294.07 688.89, 32 688.57 M999.43 688.57 C726.58 689.25, 454.6 689.79, 32 688.57 M32 688.57 C9.75 690.41, 1.41 676.22, 0 656.57 M32 688.57 C11.35 688.52, -0.98 678.18, 0 656.57 M0 656.57 C-2.65 455.64, -2.81 252.8, 0 32 M0 656.57 C0.11 527.3, 0.17 398.59, 0 32 M0 32 C-1.77 11.49, 9.88 1.98, 32 0 M0 32 C0.42 10.32, 10.37 -0.86, 32 0" stroke="#000000" stroke-width="1" fill="none"></path></g><g transform="translate(32.857142857142776 157) rotate(0 28.5 13)"><text x="0" y="18" font-family="Virgil, Segoe UI Emoji" font-size="20px" fill="#000000" text-anchor="start" style="white-space: pre;" direction="ltr">Azure</text></g><g stroke-linecap="round" transform="translate(671.4285714285713 435.9999999999999) rotate(180 126.5 82.5)"><path d="M32 0 M32 0 C102 -1.41, 172.34 -0.1, 221 0 M32 0 C106.81 0.21, 179.25 -0.06, 221 0 M221 0 C241.97 -1.58, 251.29 9.13, 253 32 M221 0 C240.72 -0.31, 250.97 11.61, 253 32 M253 32 C253.7 58.06, 253.25 83.72, 253 133 M253 32 C251.95 69.56, 251.43 106.02, 253 133 M253 133 C252.97 154.33, 242.73 165.9, 221 165 M253 133 C253.97 152.17, 243.51 164.48, 221 165 M221 165 C164.53 167.78, 110.41 167.93, 32 165 M221 165 C182.47 164.26, 144.4 163.64, 32 165 M32 165 C9.05 163.32, -1.24 153.18, 0 133 M32 165 C11.38 164.38, -1.55 153.69, 0 133 M0 133 C2.25 106.11, -0.9 78.03, 0 32 M0 133 C0.55 105.86, 0.61 77.01, 0 32 M0 32 C-0.26 12.55, 12.51 -0.22, 32 0 M0 32 C-1.94 9.43, 12.66 -2.3, 32 0" stroke="#000000" stroke-width="1" fill="none"></path></g><g transform="translate(683.4285714285713 492.4999999999999) rotate(0 114.5 26)"><text x="114.5" y="18" font-family="Virgil, Segoe UI Emoji" font-size="20px" fill="#000000" text-anchor="middle" style="white-space: pre;" direction="ltr">Virtual machine running </text><text x="114.5" y="44" font-family="Virgil, Segoe UI Emoji" font-size="20px" fill="#000000" text-anchor="middle" style="white-space: pre;" direction="ltr">Jupyterhub</text></g><g stroke-linecap="round" transform="translate(59.07142857142867 432.07142857142856) rotate(180 119.5 82.5)"><path d="M32 0 M32 0 C97.17 -1.82, 167.83 0.29, 207 0 M32 0 C83.47 -0.06, 132.97 1.91, 207 0 M207 0 C228.56 -1.56, 237.22 11.27, 239 32 M207 0 C228.21 -0.68, 239.21 8.77, 239 32 M239 32 C238.28 67.45, 239.74 101.73, 239 133 M239 32 C237.16 69.04, 238.9 106.03, 239 133 M239 133 C238.7 154.96, 230.19 164.3, 207 165 M239 133 C239.76 155.7, 230.59 165.21, 207 165 M207 165 C143.66 163.39, 77.39 165.97, 32 165 M207 165 C151.09 164.76, 93.41 166.1, 32 165 M32 165 C9.51 165.04, 0.04 152.34, 0 133 M32 165 C10.17 163.6, -0.98 155.23, 0 133 M0 133 C0.8 106.4, -2.1 80.41, 0 32 M0 133 C0.4 99.2, -0.34 65.98, 0 32 M0 32 C-0.42 12.38, 10.85 0.82, 32 0 M0 32 C2.11 10.79, 11.87 -1.69, 32 0" stroke="#000000" stroke-width="1" fill="none"></path></g><g transform="translate(95.57142857142867 508.07142857142856) rotate(0 83 13)"><text x="83" y="18" font-family="Virgil, Segoe UI Emoji" font-size="20px" fill="#000000" text-anchor="middle" style="white-space: pre;" direction="ltr">Storage account</text></g><g mask="url(#mask-0CfwG5lIV7rzbM0c4BBLq)" stroke-linecap="round"><g transform="translate(659.9999999999998 509.22471799777907) rotate(0 -175.55796929288124 2.3741029233551103)"><path d="M-0.08 1.1 C-58.68 1.74, -291.88 2.7, -350.55 3.05 M-1.58 0.63 C-60.36 1.47, -292.42 3.54, -351.03 4.12" stroke="#000000" stroke-width="1" fill="none"></path></g><g transform="translate(659.9999999999998 509.22471799777907) rotate(0 -175.55796929288124 2.3741029233551103)"><path d="M-321.11 -4.94 C-335.4 -3.49, -346.1 2.82, -350.36 4.59 M-322.54 -6.05 C-330.24 -4.19, -337.24 -1.45, -351.31 4.86" stroke="#000000" stroke-width="1" fill="none"></path></g><g transform="translate(659.9999999999998 509.22471799777907) rotate(0 -175.55796929288124 2.3741029233551103)"><path d="M-320.92 15.58 C-335.14 9.06, -345.92 7.41, -350.36 4.59 M-322.35 14.47 C-330.21 10.79, -337.26 7.97, -351.31 4.86" stroke="#000000" stroke-width="1" fill="none"></path></g></g><mask id="mask-0CfwG5lIV7rzbM0c4BBLq"><rect x="0" y="0" fill="#fff" width="1111.428571428571" height="613.161355553749"></rect><rect x="379.785714285714" y="472.1930367757641" fill="#000" width="209" height="78" opacity="1"></rect></mask><g transform="translate(379.7857142857141 472.1930367757641) rotate(0 104.65631642140443 39.40578414537009)"><text x="104.5" y="18" font-family="Virgil, Segoe UI Emoji" font-size="20px" fill="#000000" text-anchor="middle" style="white-space: pre;" direction="ltr">Acces through  your </text><text x="104.5" y="44" font-family="Virgil, Segoe UI Emoji" font-size="20px" fill="#000000" text-anchor="middle" style="white-space: pre;" direction="ltr">account and roles</text><text x="104.5" y="70" font-family="Virgil, Segoe UI Emoji" font-size="20px" fill="#000000" text-anchor="middle" style="white-space: pre;" direction="ltr"></text></g><g stroke-linecap="round" transform="translate(429.9999999999998 14.57142857142864) rotate(0 96.5 46)"><path d="M23 0 M23 0 C72.24 -0.14, 117.47 1.91, 170 0 M23 0 C62.95 0.05, 104.52 -0.71, 170 0 M170 0 C184.86 1.09, 192.81 8.79, 193 23 M170 0 C184.41 1.68, 191.73 5.72, 193 23 M193 23 C194.68 40.84, 194.62 58.01, 193 69 M193 23 C193.07 35.58, 192.59 48.76, 193 69 M193 69 C193.34 82.75, 185.63 93.81, 170 92 M193 69 C194.32 82.2, 183.68 93.54, 170 92 M170 92 C131.72 91.45, 89.69 92.78, 23 92 M170 92 C123.18 92.65, 74.51 92.59, 23 92 M23 92 C7.45 92.04, 1.92 82.97, 0 69 M23 92 C7.45 92.53, 1.87 84.45, 0 69 M0 69 C0.98 58.44, -1.81 44.96, 0 23 M0 69 C0.19 54.54, 0.04 40.14, 0 23 M0 23 C0.1 7.78, 5.7 -0.44, 23 0 M0 23 C0.38 8.24, 7.34 -1.04, 23 0" stroke="#000000" stroke-width="1" fill="none"></path></g><g transform="translate(469.4999999999998 34.57142857142864) rotate(0 57 26)"><text x="57" y="18" font-family="Virgil, Segoe UI Emoji" font-size="20px" fill="#000000" text-anchor="middle" style="white-space: pre;" direction="ltr">User device</text><text x="57" y="44" font-family="Virgil, Segoe UI Emoji" font-size="20px" fill="#000000" text-anchor="middle" style="white-space: pre;" direction="ltr"></text></g><g mask="url(#mask-wDAMJWdO-cUwKLhX-5bHf)" stroke-linecap="round"><g transform="translate(556.459020880184 118.72237196765502) rotate(0 97.3671406532307 153.3306869101393)"><path d="M0.1 0.78 C32.78 51.49, 163.51 254.39, 196.04 305.33 M-1.31 0.14 C31.28 51.52, 162.84 255.82, 195.47 306.52" stroke="#000000" stroke-width="1" fill="none"></path></g><g transform="translate(556.459020880184 118.72237196765502) rotate(0 97.3671406532307 153.3306869101393)"><path d="M172.88 289.57 C177.72 293.69, 186.63 300.65, 195.29 308.16 M172.54 288.2 C179.65 294.66, 187.96 300.79, 195.26 306.7" stroke="#000000" stroke-width="1" fill="none"></path></g><g transform="translate(556.459020880184 118.72237196765502) rotate(0 97.3671406532307 153.3306869101393)"><path d="M190.14 278.47 C189.96 285.89, 193.76 296.14, 195.29 308.16 M189.8 277.09 C191.14 287.37, 193.73 297.18, 195.26 306.7" stroke="#000000" stroke-width="1" fill="none"></path></g></g><mask id="mask-wDAMJWdO-cUwKLhX-5bHf"><rect x="0" y="0" fill="#fff" width="851.7792511508537" height="524.7169811320753"></rect><rect x="601.619136015519" y="258.7196765498652" fill="#000" width="105" height="26" opacity="1"></rect></mask><g transform="translate(601.619136015519 258.7196765498652) rotate(0 52.207025517895715 13.333382327929115)"><text x="52.5" y="18" font-family="Virgil, Segoe UI Emoji" font-size="20px" fill="#000000" text-anchor="middle" style="white-space: pre;" direction="ltr">SSH tunnel</text></g><g stroke-linecap="round" transform="translate(38.57142857142878 404.57142857142856) rotate(0 480.71428571428584 227.1428571428571)"><path d="M32 0 M32 0 C335.4 -1.4, 638.81 -0.82, 929.43 0 M929.43 0 C952.23 1.97, 962.16 10.54, 961.43 32 M961.43 32 C963.31 136.87, 963.02 242.33, 961.43 422.29 M961.43 422.29 C961.85 443.81, 950.54 456.1, 929.43 454.29 M929.43 454.29 C703.63 453.35, 479.85 453.59, 32 454.29 M32 454.29 C12.36 455.46, 0.43 442.08, 0 422.29 M0 422.29 C2.02 328.56, 1.03 234.88, 0 32 M0 32 C-0.71 12.31, 9.9 1.98, 32 0" stroke="#000000" stroke-width="1.5" fill="none" stroke-dasharray="1.5 7"></path></g><g transform="translate(85.71428571428567 368.42857142857133) rotate(0 22 13)"><text x="0" y="18" font-family="Virgil, Segoe UI Emoji" font-size="20px" fill="#000000" text-anchor="start" style="white-space: pre;" direction="ltr">Vnet</text></g><g stroke-linecap="round" transform="translate(680.6428571428571 666.3571428571429) rotate(180 126.5 82.5)"><path d="M32 0 M32 0 C96.36 3.51, 160.5 1.44, 221 0 M32 0 C89.04 0.18, 145.48 2.01, 221 0 M221 0 C243.95 0.05, 253.14 10.77, 253 32 M221 0 C240.11 -1.89, 250.74 9.5, 253 32 M253 32 C251.48 55.26, 252.16 83.02, 253 133 M253 32 C253.16 61.13, 252.88 90.59, 253 133 M253 133 C252.6 155.57, 240.76 164.92, 221 165 M253 133 C253.68 152.52, 241.09 163.73, 221 165 M221 165 C157.45 166.76, 95.5 163.88, 32 165 M221 165 C154.92 163.67, 87.02 163.8, 32 165 M32 165 C9.93 163.47, -1.39 154.62, 0 133 M32 165 C10.16 164.94, -0.98 154.94, 0 133 M0 133 C-2.37 98.86, -0.55 59.51, 0 32 M0 133 C-0.77 106.71, 0.61 79.78, 0 32 M0 32 C-1.57 11.12, 10.05 1.96, 32 0 M0 32 C-0.95 8.45, 9.7 1.94, 32 0" stroke="#000000" stroke-width="1" fill="none"></path></g><g transform="translate(704.1428571428571 722.8571428571429) rotate(0 103 26)"><text x="103" y="18" font-family="Virgil, Segoe UI Emoji" font-size="20px" fill="#000000" text-anchor="middle" style="white-space: pre;" direction="ltr">SSD for temporary  </text><text x="103" y="44" font-family="Virgil, Segoe UI Emoji" font-size="20px" fill="#000000" text-anchor="middle" style="white-space: pre;" direction="ltr">storage</text></g><g stroke-linecap="round" transform="translate(646.3571428571427 12.85714285714289) rotate(0 96.5 46)"><path d="M23 0 M23 0 C66.95 -1.83, 109.23 -1.71, 170 0 M23 0 C53.95 -1.47, 82.7 -1.22, 170 0 M170 0 C186.33 -1.21, 192.59 5.99, 193 23 M170 0 C183.33 -1.59, 195.03 8.98, 193 23 M193 23 C194.86 34.46, 192.33 47.18, 193 69 M193 23 C194.1 38.03, 192.62 55.09, 193 69 M193 69 C193.51 83.91, 184.52 92.98, 170 92 M193 69 C191.46 86.47, 187.37 93.14, 170 92 M170 92 C137.71 93.75, 102.39 91.69, 23 92 M170 92 C124.19 91.83, 80.07 93.43, 23 92 M23 92 C5.72 91.61, 1.09 85.86, 0 69 M23 92 C8.57 90.07, -1.24 84.48, 0 69 M0 69 C-2.15 50.67, -1.22 34.14, 0 23 M0 69 C0.49 51.74, 0.32 33.95, 0 23 M0 23 C1.83 5.68, 8.82 -1.93, 23 0 M0 23 C0.44 9.71, 6.76 -1.5, 23 0" stroke="#000000" stroke-width="1" fill="none"></path></g><g transform="translate(685.8571428571427 32.85714285714289) rotate(0 57 26)"><text x="57" y="18" font-family="Virgil, Segoe UI Emoji" font-size="20px" fill="#000000" text-anchor="middle" style="white-space: pre;" direction="ltr">User device</text><text x="57" y="44" font-family="Virgil, Segoe UI Emoji" font-size="20px" fill="#000000" text-anchor="middle" style="white-space: pre;" direction="ltr"></text></g><g stroke-linecap="round" transform="translate(862.0714285714282 10) rotate(0 96.5 46)"><path d="M23 0 M23 0 C62.67 1.14, 106.78 0.27, 170 0 M23 0 C56.62 0.33, 88.72 -0.7, 170 0 M170 0 C185.43 1.39, 193.64 5.67, 193 23 M170 0 C183.87 -0.69, 195.21 5.42, 193 23 M193 23 C194.03 34.23, 192.17 48.95, 193 69 M193 23 C192.32 38.98, 192.78 55.85, 193 69 M193 69 C194.59 85.21, 187.09 93.38, 170 92 M193 69 C193.43 85.54, 185 94.11, 170 92 M170 92 C140.86 92.36, 110.17 89.28, 23 92 M170 92 C123.85 91.78, 79.17 91.25, 23 92 M23 92 C9.51 93.84, 0.18 83.99, 0 69 M23 92 C9.62 94.23, 1.62 83.23, 0 69 M0 69 C1.14 58.36, 2.01 48.41, 0 23 M0 69 C-1.15 55.06, -0.95 39.86, 0 23 M0 23 C-1.2 8.31, 6.87 0.75, 23 0 M0 23 C0.03 7.49, 8.9 1.86, 23 0" stroke="#000000" stroke-width="1" fill="none"></path></g><g transform="translate(901.5714285714282 30) rotate(0 57 26)"><text x="57" y="18" font-family="Virgil, Segoe UI Emoji" font-size="20px" fill="#000000" text-anchor="middle" style="white-space: pre;" direction="ltr">User device</text><text x="57" y="44" font-family="Virgil, Segoe UI Emoji" font-size="20px" fill="#000000" text-anchor="middle" style="white-space: pre;" direction="ltr"></text></g><g stroke-linecap="round"><g transform="translate(795.7142857142856 614.5714285714286) rotate(0 0.3285525815507526 25.52594975389536)"><path d="M0.28 1.08 C0.64 9.61, 1.56 42.47, 1.69 50.46 M-1.03 0.59 C-0.77 8.82, 0.69 40.38, 0.88 48.57" stroke="#000000" stroke-width="1" fill="none"></path></g><g transform="translate(795.7142857142856 614.5714285714286) rotate(0 0.3285525815507526 25.52594975389536)"><path d="M-6.72 25.83 C-5.44 30.8, -5.45 36.16, 2.82 49.87 M-8.3 24.58 C-7.28 30.75, -3.43 35.52, 1.65 48.15" stroke="#000000" stroke-width="1" fill="none"></path></g><g transform="translate(795.7142857142856 614.5714285714286) rotate(0 0.3285525815507526 25.52594975389536)"><path d="M10.38 25.22 C7.19 30.39, 2.73 35.9, 2.82 49.87 M8.79 23.97 C5.79 30.25, 5.63 35.16, 1.65 48.15" stroke="#000000" stroke-width="1" fill="none"></path></g></g><mask></mask><g stroke-linecap="round"><g transform="translate(745.7142857142856 113.14285714285717) rotate(0 13.907541564372991 153.95909134667895)"><path d="M-0.55 0.41 C4.19 51.81, 23.5 256.12, 28.36 307.41 M1.36 -0.42 C5.94 51.16, 22.88 256.72, 27.31 308.34" stroke="#000000" stroke-width="1" fill="none"></path></g><g transform="translate(745.7142857142856 113.14285714285717) rotate(0 13.907541564372991 153.95909134667895)"><path d="M15.4 280.76 C16.25 289.23, 21.23 296.18, 26.63 308.18 M14.1 280.71 C18.31 290.47, 23.86 300.73, 27.06 308.5" stroke="#000000" stroke-width="1" fill="none"></path></g><g transform="translate(745.7142857142856 113.14285714285717) rotate(0 13.907541564372991 153.95909134667895)"><path d="M35.85 279.05 C30.71 287.92, 29.71 295.38, 26.63 308.18 M34.55 279 C31.44 289.49, 29.66 300.37, 27.06 308.5" stroke="#000000" stroke-width="1" fill="none"></path></g></g><mask></mask><g stroke-linecap="round"><g transform="translate(931.4285714285713 116) rotate(0 -70.74809013284744 153.8789328993963)"><path d="M0.08 -0.55 C-23.29 50.88, -116.98 257.2, -140.41 308.3 M-1.34 1.78 C-24.88 52.93, -118.21 255.94, -141.58 306.79" stroke="#000000" stroke-width="1" fill="none"></path></g><g transform="translate(931.4285714285713 116) rotate(0 -70.74809013284744 153.8789328993963)"><path d="M-140.04 276.21 C-137.95 284.49, -142.31 294.03, -139.94 305 M-139.55 277.37 C-139.81 285.47, -141.48 294.55, -141.23 306.22" stroke="#000000" stroke-width="1" fill="none"></path></g><g transform="translate(931.4285714285713 116) rotate(0 -70.74809013284744 153.8789328993963)"><path d="M-121.39 284.78 C-124.55 290.66, -134.18 297.77, -139.94 305 M-120.91 285.94 C-126.34 291.47, -133.25 298.14, -141.23 306.22" stroke="#000000" stroke-width="1" fill="none"></path></g></g><mask></mask></svg>