<svg version="1.1" xmlns="http://www.w3.org/2000/svg" viewBox="0 0 1670.8571428571431 1103.0535714285713" width="1670.8571428571431" height="1103.0535714285713">
  <!-- svg-source:excalidraw -->
  
  <defs>
    <style class="style-fonts">
      @font-face {
        font-family: "Virgil";
        src: url("https://excalidraw.com/Virgil.woff2");
      }
      @font-face {
        font-family: "Cascadia";
        src: url("https://excalidraw.com/Cascadia.woff2");
      }
    </style>
  </defs>
  <rect x="0" y="0" width="1670.8571428571431" height="1103.0535714285713" fill="#ffffff"></rect><g stroke-linecap="round" transform="translate(10 68.7142857142857) rotate(0 825.4285714285716 399.78571428571433)"><path d="M32 0 M32 0 C461.64 1.1, 891.47 1.76, 1618.86 0 M32 0 C353.53 5.81, 675.96 5.83, 1618.86 0 M1618.86 0 C1640.72 -1.98, 1650.69 11.44, 1650.86 32 M1618.86 0 C1638.17 2.14, 1650.73 12.4, 1650.86 32 M1650.86 32 C1653.04 199.53, 1652.65 368.13, 1650.86 767.57 M1650.86 32 C1648.47 230.7, 1648.36 429.65, 1650.86 767.57 M1650.86 767.57 C1649.54 789.89, 1639.71 798.71, 1618.86 799.57 M1650.86 767.57 C1649.79 790.65, 1640.12 799.81, 1618.86 799.57 M1618.86 799.57 C1206.73 801.65, 793.5 801.8, 32 799.57 M1618.86 799.57 C1004.75 803.25, 391.47 803.25, 32 799.57 M32 799.57 C11.15 800.83, 0.69 788.18, 0 767.57 M32 799.57 C11.97 797.58, 2.08 786.9, 0 767.57 M0 767.57 C1.68 546.46, 2.18 324.87, 0 32 M0 767.57 C-1.15 507.73, -0.58 247.59, 0 32 M0 32 C-0.24 10.83, 12.4 -0.47, 32 0 M0 32 C1.91 8.59, 12.86 -2.11, 32 0" stroke="#000000" stroke-width="1" fill="none"></path></g><g transform="translate(36.85714285714312 10) rotate(0 121 18)"><text x="0" y="25" font-family="Virgil, Segoe UI Emoji" font-size="27.142857142857142px" fill="#000000" text-anchor="start" style="white-space: pre;" direction="ltr">Azure subscription</text></g><g stroke-linecap="round" transform="translate(51.142857142857565 134.4285714285716) rotate(0 119.5 56.999999999999986)"><path d="M28.5 0 M28.5 0 C99.01 1.29, 171.7 2.93, 210.5 0 M28.5 0 C74.65 1, 119.39 1.12, 210.5 0 M210.5 0 C228.84 -0.82, 237.89 8.25, 239 28.5 M210.5 0 C230.28 -1.94, 240.61 11.26, 239 28.5 M239 28.5 C240.61 42.33, 240.85 56.92, 239 85.5 M239 28.5 C238.61 46.97, 240.3 65.11, 239 85.5 M239 85.5 C240.69 104.5, 228.77 114.12, 210.5 114 M239 85.5 C240.58 104.02, 229.7 113.25, 210.5 114 M210.5 114 C161.4 112.2, 114.02 114.32, 28.5 114 M210.5 114 C144.57 115.43, 80.84 115.36, 28.5 114 M28.5 114 C10.3 114.47, -0.93 105.8, 0 85.5 M28.5 114 C11.14 112.29, 0.14 105.25, 0 85.5 M0 85.5 C0.85 70.2, -0.18 56.81, 0 28.5 M0 85.5 C0.82 66.36, -0.5 45.51, 0 28.5 M0 28.5 C-0.81 9.72, 7.68 1.57, 28.5 0 M0 28.5 C-0.49 11.17, 7.71 0.36, 28.5 0" stroke="#000000" stroke-width="1" fill="none"></path></g><g transform="translate(59.142857142857565 165.4285714285716) rotate(0 111.5 26)"><text x="111.5" y="18" font-family="Virgil, Segoe UI Emoji" font-size="20px" fill="#000000" text-anchor="middle" style="white-space: pre;" direction="ltr">Storage account with </text><text x="111.5" y="44" font-family="Virgil, Segoe UI Emoji" font-size="20px" fill="#000000" text-anchor="middle" style="white-space: pre;" direction="ltr">the terraform state</text></g><g stroke-linecap="round" transform="translate(515.2500000000007 142.17857142857096) rotate(0 127.5 52)"><path d="M26 0 M26 0 C81.34 0.35, 139.84 -0.47, 229 0 M26 0 C71.65 0.63, 118.19 -0.35, 229 0 M229 0 C247.64 -0.85, 253.67 8.31, 255 26 M229 0 C246.66 -0.06, 256.11 7.35, 255 26 M255 26 C253.87 40.59, 253.62 57.15, 255 78 M255 26 C255.91 43.72, 254.81 62.59, 255 78 M255 78 C253.41 94.91, 248.26 104.09, 229 104 M255 78 C253.78 93.99, 247.94 101.98, 229 104 M229 104 C165.31 104.54, 98.84 105.71, 26 104 M229 104 C173.59 105.34, 117.38 104.95, 26 104 M26 104 C8.21 104.25, -0.83 96.42, 0 78 M26 104 C10.77 103.86, -1.21 96.9, 0 78 M0 78 C1.19 67.2, 0.61 56.1, 0 26 M0 78 C0.71 62.83, 1.29 48.83, 0 26 M0 26 C0.43 7.66, 7.31 0.48, 26 0 M0 26 C1.33 9.22, 7.74 -1.43, 26 0" stroke="#000000" stroke-width="1" fill="none"></path></g><g transform="translate(554.7500000000007 181.17857142857096) rotate(0 88 13)"><text x="88" y="18" font-family="Virgil, Segoe UI Emoji" font-size="20px" fill="#000000" text-anchor="middle" style="white-space: pre;" direction="ltr">Container registry</text></g><g stroke-linecap="round" transform="translate(828.3571428571433 502.35714285714255) rotate(0 128 52.00000000000003)"><path d="M26 0 M26 0 C83.54 -0.22, 138.48 1.2, 230 0 M26 0 C70.13 0.83, 114.36 0.72, 230 0 M230 0 C248.75 -0.93, 257.92 9.22, 256 26 M230 0 C246.1 -1.64, 255.22 8.69, 256 26 M256 26 C256.61 38.82, 257.23 50.51, 256 78 M256 26 C256.45 41.53, 256.1 58.64, 256 78 M256 78 C255.14 93.91, 248.62 103.76, 230 104 M256 78 C256.73 97.15, 246.46 104.52, 230 104 M230 104 C188.48 105.83, 147.14 106.02, 26 104 M230 104 C187.69 102.33, 147.44 102.62, 26 104 M26 104 C8.01 102.45, -1.73 96.74, 0 78 M26 104 C10.49 105.76, -0.92 94.26, 0 78 M0 78 C-1.44 62.57, 0.31 48.46, 0 26 M0 78 C0.52 64.52, -0.92 52.18, 0 26 M0 26 C-1.64 7.27, 8.97 -0.68, 26 0 M0 26 C2.12 10.47, 8.04 2.06, 26 0" stroke="#000000" stroke-width="1" fill="none"></path></g><g transform="translate(838.8571428571433 515.3571428571423) rotate(0 117 26)"><text x="117" y="18" font-family="Virgil, Segoe UI Emoji" font-size="20px" fill="#000000" text-anchor="middle" style="white-space: pre;" direction="ltr">Azure app services with</text><text x="117" y="44" font-family="Virgil, Segoe UI Emoji" font-size="20px" fill="#000000" text-anchor="middle" style="white-space: pre;" direction="ltr">Data donation app</text></g><g stroke-linecap="round" transform="translate(1240.5000000000002 483.71428571428567) rotate(0 127.5 52.00000000000003)"><path d="M26 0 M26 0 C78.79 -2.25, 134.36 -2.14, 229 0 M26 0 C83.07 -2.13, 140.04 -2.2, 229 0 M229 0 C245.5 0.58, 256.53 6.93, 255 26 M229 0 C244.88 -1.96, 254.22 8.13, 255 26 M255 26 C255.5 42.99, 256.38 61.85, 255 78 M255 26 C254.37 42.5, 253.78 59.6, 255 78 M255 78 C254.06 95.79, 247.74 105.76, 229 104 M255 78 C255.36 95.25, 248.4 101.88, 229 104 M229 104 C147.37 103.75, 69.28 105.43, 26 104 M229 104 C169.93 105.67, 112.11 105.63, 26 104 M26 104 C10.25 103.25, -1.57 96.75, 0 78 M26 104 C7.9 106.12, 0.05 96.15, 0 78 M0 78 C0.09 60.07, -0.62 41.55, 0 26 M0 78 C0.72 60.86, 0.04 42.12, 0 26 M0 26 C1.89 9.85, 6.79 0.68, 26 0 M0 26 C1.2 8.94, 6.96 -0.31, 26 0" stroke="#000000" stroke-width="1" fill="none"></path></g><g transform="translate(1256.5000000000002 509.71428571428567) rotate(0 111.5 26.00000000000003)"><text x="111.5" y="18" font-family="Virgil, Segoe UI Emoji" font-size="20px" fill="#000000" text-anchor="middle" style="white-space: pre;" direction="ltr">Storage account with </text><text x="111.5" y="44" font-family="Virgil, Segoe UI Emoji" font-size="20px" fill="#000000" text-anchor="middle" style="white-space: pre;" direction="ltr">donated data</text></g><g stroke-linecap="round" transform="translate(1245.7142857142862 649.5357142857139) rotate(0 127.5 52)"><path d="M26 0 M26 0 C106.88 -0.19, 185.29 -0.45, 229 0 M26 0 C100.16 -2.16, 172.62 -1.32, 229 0 M229 0 C247.97 -0.38, 255.07 10.55, 255 26 M229 0 C247.7 -2.16, 255.78 9.86, 255 26 M255 26 C255 41.61, 253.9 58.44, 255 78 M255 26 C255.88 45.11, 255.19 65.3, 255 78 M255 78 C256.89 96.31, 246.14 105.84, 229 104 M255 78 C256.88 93.57, 247.84 102.89, 229 104 M229 104 C178.27 103.27, 129.79 103.63, 26 104 M229 104 C180.58 102.93, 131.17 102.9, 26 104 M26 104 C7.94 103.25, 0.08 95.27, 0 78 M26 104 C8.87 106.21, -1.78 96.65, 0 78 M0 78 C1.04 57.44, -1.78 37.82, 0 26 M0 78 C0.19 60.23, 0 39.8, 0 26 M0 26 C1.8 9.82, 7.21 -0.77, 26 0 M0 26 C-0.35 10.16, 10.69 1.62, 26 0" stroke="#000000" stroke-width="1" fill="none"></path></g><g transform="translate(1261.7142857142862 675.5357142857139) rotate(0 111.5 26)"><text x="111.5" y="18" font-family="Virgil, Segoe UI Emoji" font-size="20px" fill="#000000" text-anchor="middle" style="white-space: pre;" direction="ltr">Storage account with </text><text x="111.5" y="44" font-family="Virgil, Segoe UI Emoji" font-size="20px" fill="#000000" text-anchor="middle" style="white-space: pre;" direction="ltr">logging data</text></g><g stroke-linecap="round" transform="translate(1243.0714285714291 351.9999999999999) rotate(0 127.5 52)"><path d="M26 0 M26 0 C77.02 -0.33, 129.67 -1.48, 229 0 M26 0 C72.81 0.78, 119.82 0.98, 229 0 M229 0 C246.33 0.44, 255.54 7.29, 255 26 M229 0 C245.84 1.62, 254.09 7.79, 255 26 M255 26 C253.03 47.07, 256.38 67.02, 255 78 M255 26 C254.68 41.72, 255.81 56.45, 255 78 M255 78 C254.7 93.6, 246.56 104.9, 229 104 M255 78 C256.77 94.85, 244.09 103.03, 229 104 M229 104 C185.45 105.6, 137.23 106.82, 26 104 M229 104 C186.44 104.93, 143.94 105.1, 26 104 M26 104 C9.43 105.18, -0.2 94.62, 0 78 M26 104 C9.53 102.77, -1.11 97.28, 0 78 M0 78 C-1.42 63.34, 0.6 43.62, 0 26 M0 78 C0.02 59.43, 0.59 42.65, 0 26 M0 26 C1.19 9.57, 9.1 1.28, 26 0 M0 26 C-0.98 6.57, 9.16 -2.06, 26 0" stroke="#000000" stroke-width="1" fill="none"></path></g><g transform="translate(1260.5714285714291 390.9999999999999) rotate(0 110 13)"><text x="110" y="18" font-family="Virgil, Segoe UI Emoji" font-size="20px" fill="#000000" text-anchor="middle" style="white-space: pre;" direction="ltr">PostgreSQL database</text></g><g stroke-linecap="round" transform="translate(807.1428571428571 143.73214285714286) rotate(0 127.5 52)"><path d="M26 0 M26 0 C85.32 -0.48, 145.35 1.13, 229 0 M26 0 C96.85 -1.4, 167.57 -1.36, 229 0 M229 0 C247.05 -1.09, 253.65 9.39, 255 26 M229 0 C247.16 0.93, 253.01 6.58, 255 26 M255 26 C255.97 41.64, 255.55 58.42, 255 78 M255 26 C253.94 46.73, 254.7 64.65, 255 78 M255 78 C254.76 93.5, 247.51 103.13, 229 104 M255 78 C257.21 93.98, 247.22 105.83, 229 104 M229 104 C165.45 101.34, 104.78 103.2, 26 104 M229 104 C182.23 105.94, 134.65 106.28, 26 104 M26 104 C8.54 103.44, 1.08 95.41, 0 78 M26 104 C6.42 105.86, 1.88 95.3, 0 78 M0 78 C2.11 65.93, 1.24 55.85, 0 26 M0 78 C-0.21 63.85, -0.31 49.29, 0 26 M0 26 C1.47 7.16, 8.78 -1.01, 26 0 M0 26 C1.97 8.27, 8.62 0.36, 26 0" stroke="#000000" stroke-width="1" fill="none"></path></g><g transform="translate(812.6428571428571 170.23214285714275) rotate(0 122 26)"><text x="122" y="18" font-family="Virgil, Segoe UI Emoji" font-size="20px" fill="#000000" text-anchor="middle" style="white-space: pre;" direction="ltr">Azure app services with </text><text x="122" y="44" font-family="Virgil, Segoe UI Emoji" font-size="20px" fill="#000000" text-anchor="middle" style="white-space: pre;" direction="ltr">Webserver</text></g><g stroke-linecap="round" transform="translate(49.250000000000455 263.19642857142867) rotate(0 119.5 57)"><path d="M28.5 0 M28.5 0 C95.16 0.58, 162.08 -2.02, 210.5 0 M28.5 0 C97.95 -0.6, 165.66 -0.51, 210.5 0 M210.5 0 C229.27 1.17, 238.21 7.59, 239 28.5 M210.5 0 C228.73 0.33, 240.86 8.24, 239 28.5 M239 28.5 C238.01 51.32, 240.75 72.05, 239 85.5 M239 28.5 C238.15 40.76, 238.35 51.87, 239 85.5 M239 85.5 C237.13 104.23, 227.61 114.24, 210.5 114 M239 85.5 C238.51 106.69, 228.53 115.7, 210.5 114 M210.5 114 C168.45 115.31, 126.5 115.28, 28.5 114 M210.5 114 C154.38 114.85, 99.41 115.22, 28.5 114 M28.5 114 C10.22 112.97, 0.4 105.7, 0 85.5 M28.5 114 C10.24 113.7, -0.48 104.1, 0 85.5 M0 85.5 C-0.82 64.42, -1.05 44.31, 0 28.5 M0 85.5 C-0.73 72.91, -0.82 59.15, 0 28.5 M0 28.5 C-1.65 8.16, 8.87 -1.26, 28.5 0 M0 28.5 C2.07 10.82, 11.28 -0.08, 28.5 0" stroke="#000000" stroke-width="1" fill="none"></path></g><g transform="translate(94.25000000000045 307.19642857142867) rotate(0 74.5 13)"><text x="74.5" y="18" font-family="Virgil, Segoe UI Emoji" font-size="20px" fill="#000000" text-anchor="middle" style="white-space: pre;" direction="ltr">Cost monitoring</text></g><g stroke-linecap="round"><g transform="translate(762.6654594156107 259.07601021393555) rotate(0 34.599845126562 115.42652719759228)"><path d="M-0.51 -0.43 C10.62 38.03, 55.91 192.84, 67.56 231.44 M1.43 -1.71 C12.84 36.83, 58.45 193.62, 69.71 232.56" stroke="#000000" stroke-width="1" fill="none"></path></g><g transform="translate(762.6654594156107 259.07601021393555) rotate(0 34.599845126562 115.42652719759228)"><path d="M51.27 206.57 C57.31 218.56, 63.36 227.72, 71.02 231.61 M51.87 208.3 C55.55 213.61, 61.12 219.75, 68.92 233.24" stroke="#000000" stroke-width="1" fill="none"></path></g><g transform="translate(762.6654594156107 259.07601021393555) rotate(0 34.599845126562 115.42652719759228)"><path d="M70.98 200.85 C69.8 214.87, 68.59 226.13, 71.02 231.61 M71.57 202.58 C70.47 209.44, 71.28 216.96, 68.92 233.24" stroke="#000000" stroke-width="1" fill="none"></path></g></g><mask></mask><g stroke-linecap="round"><g transform="translate(935.7167816447602 255.91071428571442) rotate(0 7.00794975498718 119.80953132173583)"><path d="M-1.07 0.53 C1.31 40.4, 12.38 198.92, 15.09 238.41 M0.56 -0.24 C2.78 39.9, 12.08 200.12, 14.44 239.86" stroke="#000000" stroke-width="1" fill="none"></path></g><g transform="translate(935.7167816447602 255.91071428571442) rotate(0 7.00794975498718 119.80953132173583)"><path d="M3.43 213.26 C6.4 223.5, 9.17 233.28, 16.39 239.86 M3.39 211.64 C7.35 223.39, 10.9 233.56, 13.95 238.99" stroke="#000000" stroke-width="1" fill="none"></path></g><g transform="translate(935.7167816447602 255.91071428571442) rotate(0 7.00794975498718 119.80953132173583)"><path d="M23.91 212.06 C19.44 222.55, 14.76 232.76, 16.39 239.86 M23.87 210.44 C20.01 222.74, 15.73 233.37, 13.95 238.99" stroke="#000000" stroke-width="1" fill="none"></path></g></g><mask></mask><g stroke-linecap="round"><g transform="translate(1094.464285714286 559.2686653382565) rotate(0 67.05184174753992 -5.731609410149531)"><path d="M0.16 -0.23 C22.66 -1.91, 112.91 -9.47, 135.32 -11.23 M-1.22 -1.39 C21.2 -2.76, 112.37 -7.71, 134.92 -9.62" stroke="#000000" stroke-width="1" fill="none"></path></g><g transform="translate(1094.464285714286 559.2686653382565) rotate(0 67.05184174753992 -5.731609410149531)"><path d="M107.1 4.24 C116.7 -0.79, 126.28 -5.33, 135.63 -11.29 M108.38 2.94 C113.86 -0.54, 121.71 -4.5, 134.59 -10.06" stroke="#000000" stroke-width="1" fill="none"></path></g><g transform="translate(1094.464285714286 559.2686653382565) rotate(0 67.05184174753992 -5.731609410149531)"><path d="M105.73 -16.24 C115.57 -14.66, 125.6 -12.59, 135.63 -11.29 M107 -17.53 C112.79 -15.8, 121 -14.54, 134.59 -10.06" stroke="#000000" stroke-width="1" fill="none"></path></g></g><mask></mask><g stroke-linecap="round"><g transform="translate(1361.6194658489937 601.6249999999997) rotate(0 -0.17081215962298302 20.37310757720843)"><path d="M0.77 -0.78 C0.59 5.78, 0.04 33.17, -0.38 39.99 M-0.29 1.42 C-0.64 8.14, -1.24 34.84, -1.08 41.53" stroke="#000000" stroke-width="1" fill="none"></path></g><g transform="translate(1361.6194658489937 601.6249999999997) rotate(0 -0.17081215962298302 20.37310757720843)"><path d="M-9.17 23.5 C-5.37 27.87, -2.73 37.18, 0.03 42.91 M-8.63 22.25 C-7 28.52, -4.18 32.17, -0.26 41.86" stroke="#000000" stroke-width="1" fill="none"></path></g><g transform="translate(1361.6194658489937 601.6249999999997) rotate(0 -0.17081215962298302 20.37310757720843)"><path d="M4.52 23.54 C3.45 27.98, 1.24 37.28, 0.03 42.91 M5.05 22.3 C2.9 28.44, 1.95 32.07, -0.26 41.86" stroke="#000000" stroke-width="1" fill="none"></path></g></g><mask></mask><g stroke-linecap="round"><g transform="translate(1228.7500000000002 393.7628506004577) rotate(0 -104.92057343477325 47.24803624686234)"><path d="M0.55 -0.23 C-34.5 15.5, -174.54 78.85, -209.46 94.58 M-0.62 -1.4 C-35.89 14.48, -175.59 79.83, -210.39 95.89" stroke="#000000" stroke-width="1" fill="none"></path></g><g transform="translate(1228.7500000000002 393.7628506004577) rotate(0 -104.92057343477325 47.24803624686234)"><path d="M-189.54 74.75 C-197.65 83.53, -206.22 88.42, -210.78 96.75 M-188.9 75.5 C-197.09 82.82, -206.54 90.96, -210.53 96.08" stroke="#000000" stroke-width="1" fill="none"></path></g><g transform="translate(1228.7500000000002 393.7628506004577) rotate(0 -104.92057343477325 47.24803624686234)"><path d="M-180.89 93.36 C-192.23 95.32, -203.98 93.35, -210.78 96.75 M-180.25 94.11 C-191.78 93.97, -204.67 94.71, -210.53 96.08" stroke="#000000" stroke-width="1" fill="none"></path></g></g><mask></mask><g stroke-linecap="round" transform="translate(865.8928571428573 915.0535714285713) rotate(0 105 88.99999999999994)"><path d="M132.5 22.5 M132.5 22.5 C149.91 35.22, 163.6 48.2, 183.5 67.5 M132.5 22.5 C142.82 33.23, 155.18 42.71, 183.5 67.5 M183.5 67.5 C210.76 88.84, 208.88 91.61, 183.5 112.5 M183.5 67.5 C212.17 88.67, 209.57 91.22, 183.5 112.5 M183.5 112.5 C166.92 126.61, 149.29 142.79, 132.5 155.5 M183.5 112.5 C171.6 121.91, 159.68 131.48, 132.5 155.5 M132.5 155.5 C106.28 178.91, 105.49 178.19, 79.5 155.5 M132.5 155.5 C105.82 177.54, 105.81 180.05, 79.5 155.5 M79.5 155.5 C65.94 141.88, 51.08 132.83, 26.5 112.5 M79.5 155.5 C64.53 142.97, 48.17 130.81, 26.5 112.5 M26.5 112.5 C-0.5 91.04, -0.57 90.22, 26.5 67.5 M26.5 112.5 C-0.51 89.97, 1.54 92.03, 26.5 67.5 M26.5 67.5 C42.66 52.95, 61.82 36.9, 79.5 22.5 M26.5 67.5 C45.85 50.96, 64.8 34.05, 79.5 22.5 M79.5 22.5 C104.03 1.41, 104.33 0.38, 132.5 22.5 M79.5 22.5 C106.12 -1.45, 106.14 1.66, 132.5 22.5" stroke="#000000" stroke-width="1" fill="none"></path></g><g transform="translate(897.8928571428573 978.0535714285713) rotate(0 73 26)"><text x="73" y="18" font-family="Virgil, Segoe UI Emoji" font-size="20px" fill="#000000" text-anchor="middle" style="white-space: pre;" direction="ltr">Device of the </text><text x="73" y="44" font-family="Virgil, Segoe UI Emoji" font-size="20px" fill="#000000" text-anchor="middle" style="white-space: pre;" direction="ltr">participant</text></g><g stroke-linecap="round"><g transform="translate(971.8667327365729 902.2052644471702) rotate(0 -5.110017062757947 -145.4367365793821)"><path d="M0.23 0.19 C-1.43 -48.51, -8.23 -242.73, -9.79 -291.06 M-1.1 -0.76 C-2.89 -48.79, -9.09 -241.28, -10.45 -289.77" stroke="#000000" stroke-width="1" fill="none"></path></g><g transform="translate(971.8667327365729 902.2052644471702) rotate(0 -5.110017062757947 -145.4367365793821)"><path d="M0.97 -261.01 C-3.91 -268.71, -5.31 -279.23, -11.46 -290.64 M1.32 -261.84 C-1.86 -269.76, -5.16 -275.86, -11.37 -290.51" stroke="#000000" stroke-width="1" fill="none"></path></g><g transform="translate(971.8667327365729 902.2052644471702) rotate(0 -5.110017062757947 -145.4367365793821)"><path d="M-19.54 -260.38 C-17.95 -268.32, -12.88 -279.04, -11.46 -290.64 M-19.19 -261.22 C-17.23 -269.43, -15.38 -275.69, -11.37 -290.51" stroke="#000000" stroke-width="1" fill="none"></path></g></g><mask></mask><g stroke-linecap="round" transform="translate(1085.5357142857144 141.05357142857153) rotate(0 127.5 52)"><path d="M26 0 M26 0 C103.57 3.04, 179.14 0.39, 229 0 M26 0 C96.68 0.03, 167.82 0.7, 229 0 M229 0 C245.74 -1.28, 253.76 9.57, 255 26 M229 0 C245.52 -1.4, 256.29 10.77, 255 26 M255 26 C253.52 39.09, 255.54 50.03, 255 78 M255 26 C255.35 42.36, 255.28 59.91, 255 78 M255 78 C254.61 95.71, 246.83 104.75, 229 104 M255 78 C253.57 94.68, 245.53 105.18, 229 104 M229 104 C169.76 103.02, 112.18 104.55, 26 104 M229 104 C181.72 102.62, 135.85 102.93, 26 104 M26 104 C9.59 103.24, 0.46 96.83, 0 78 M26 104 C8.76 101.87, 1.21 93.4, 0 78 M0 78 C0 68.63, -1.52 55.65, 0 26 M0 78 C0.18 65.95, -0.35 55.06, 0 26 M0 26 C1.74 9.84, 7.3 -1.92, 26 0 M0 26 C-2.27 9.48, 7.62 -2.07, 26 0" stroke="#000000" stroke-width="1" fill="none"></path></g><g transform="translate(1115.0357142857144 180.30357142857153) rotate(0 98 13)"><text x="98" y="18" font-family="Virgil, Segoe UI Emoji" font-size="20px" fill="#000000" text-anchor="middle" style="white-space: pre;" direction="ltr">Automation account</text></g><g stroke-linecap="round" transform="translate(425.89285714285734 323.05357142857156) rotate(0 542.8571428571429 252.1428571428571)"><path d="M32 0 M32 0 C384.17 3, 736.25 3.81, 1053.71 0 M1053.71 0 C1075.97 0.62, 1084.94 12.23, 1085.71 32 M1085.71 32 C1084.32 192.49, 1085.2 352.61, 1085.71 472.29 M1085.71 472.29 C1087.22 492.91, 1073.94 505.76, 1053.71 504.29 M1053.71 504.29 C689.08 506.95, 324.99 506.91, 32 504.29 M32 504.29 C9.52 506, 1.19 494.12, 0 472.29 M0 472.29 C0.17 327.37, -0.26 185.13, 0 32 M0 32 C-0.58 9.33, 10.54 -1.36, 32 0" stroke="#000000" stroke-width="1.5" fill="none" stroke-dasharray="8 9"></path></g><g transform="translate(447.7500000000002 752.1964285714284) rotate(0 188.5 10)"><text x="0" y="14" font-family="Virgil, Segoe UI Emoji" font-size="15.2947845804989px" fill="#000000" text-anchor="start" style="white-space: pre;" direction="ltr">Deployed in multiple environments (dev, test, prod)</text></g><g stroke-linecap="round" transform="translate(424.464285714286 105.19642857142864) rotate(0 541.4285714285713 96.42857142857144)"><path d="M32 0 M32 0 C315.69 -0.25, 599.59 0.21, 1050.86 0 M1050.86 0 C1070.8 -0.71, 1083.82 9.04, 1082.86 32 M1082.86 32 C1083 70.27, 1083.73 110.39, 1082.86 160.86 M1082.86 160.86 C1083.93 181.2, 1071.89 193.36, 1050.86 192.86 M1050.86 192.86 C756.84 189.74, 463.98 190.4, 32 192.86 M32 192.86 C9.8 192.34, -1.97 180.92, 0 160.86 M0 160.86 C1.48 132.87, 0.21 107.86, 0 32 M0 32 C-0.64 9.13, 9.53 0.65, 32 0" stroke="#000000" stroke-width="1.5" fill="none" stroke-dasharray="8 9"></path></g><g transform="translate(457.4047619047619 262.91071428571433) rotate(0 110.5 10)"><text x="0" y="14" font-family="Virgil, Segoe UI Emoji" font-size="15.2947845804989px" fill="#000000" text-anchor="start" style="white-space: pre;" direction="ltr">Deployed in single environment</text></g><g transform="translate(447.39285714285734 787.3392857142858) rotate(0 173.5 10)"><text x="0" y="14" font-family="Virgil, Segoe UI Emoji" font-size="15.2947845804989px" fill="#000000" text-anchor="start" style="white-space: pre;" direction="ltr">Environments are in separate resource groups</text></g></svg>