<svg version="1.1" xmlns="http://www.w3.org/2000/svg" viewBox="0 0 1468 965.9107142857142" width="1468" height="965.9107142857142">
  <!-- svg-source:excalidraw -->
  
  <defs>
    <style class="style-fonts">
      @font-face {
        font-family: "Virgil";
        src: url("https://excalidraw.com/Virgil.woff2");
      }
      @font-face {
        font-family: "Cascadia";
        src: url("https://excalidraw.com/Cascadia.woff2");
      }
    </style>
  </defs>
  <rect x="0" y="0" width="1468" height="965.9107142857142" fill="#ffffff"></rect><g stroke-linecap="round" transform="translate(10 58.71428571428572) rotate(0 724 340.5)"><path d="M32 0 M32 0 C406.7 0.97, 781.59 1.64, 1416 0 M1416 0 C1435.39 1.94, 1446.17 9.16, 1448 32 M1448 32 C1449.99 218.8, 1449.71 407.5, 1448 649 M1448 649 C1446.25 672.19, 1437.22 682.51, 1416 681 M1416 681 C1100.45 681.15, 784.22 681.89, 32 681 M32 681 C10.07 679.57, 0.34 668.89, 0 649 M0 649 C1.93 484.57, 2.27 319, 0 32 M0 32 C-0.93 12.18, 10.6 0.21, 32 0" stroke="#000000" stroke-width="1.5" fill="none" stroke-dasharray="8 9"></path></g><g transform="translate(66.85714285714289 10) rotate(0 121 18)"><text x="0" y="25" font-family="Virgil, Segoe UI Emoji" font-size="27.142857142857142px" fill="#000000" text-anchor="start" style="white-space: pre;" direction="ltr">Azure subscription</text></g><g stroke-linecap="round" transform="translate(41.14285714285734 210.14285714285722) rotate(0 119.5 57)"><path d="M28.5 0 M28.5 0 C99.01 1.29, 171.7 2.93, 210.5 0 M210.5 0 C228.53 0.39, 238.72 10.24, 239 28.5 M239 28.5 C237.96 49.03, 237.52 69.95, 239 85.5 M239 85.5 C239.68 102.81, 230.9 115.53, 210.5 114 M210.5 114 C163.56 113.07, 115.45 112.52, 28.5 114 M28.5 114 C9.84 115.14, 0.24 103.06, 0 85.5 M0 85.5 C1.14 66.06, -1.29 46.73, 0 28.5 M0 28.5 C1.38 9.09, 9.67 -0.65, 28.5 0" stroke="#000000" stroke-width="1.5" fill="none" stroke-dasharray="8 9"></path></g><g transform="translate(49.14285714285734 241.14285714285722) rotate(0 111.5 26)"><text x="111.5" y="18" font-family="Virgil, Segoe UI Emoji" font-size="20px" fill="#000000" text-anchor="middle" style="white-space: pre;" direction="ltr">Storage account with </text><text x="111.5" y="44" font-family="Virgil, Segoe UI Emoji" font-size="20px" fill="#000000" text-anchor="middle" style="white-space: pre;" direction="ltr">the terraform state</text></g><g stroke-linecap="round" transform="translate(342.39285714285757 275.0357142857137) rotate(0 127.5 52)"><path d="M26 0 M26 0 C81.34 0.35, 139.84 -0.47, 229 0 M26 0 C71.65 0.63, 118.19 -0.35, 229 0 M229 0 C247.64 -0.85, 253.67 8.31, 255 26 M229 0 C246.66 -0.06, 256.11 7.35, 255 26 M255 26 C253.87 40.59, 253.62 57.15, 255 78 M255 26 C255.91 43.72, 254.81 62.59, 255 78 M255 78 C253.41 94.91, 248.26 104.09, 229 104 M255 78 C253.78 93.99, 247.94 101.98, 229 104 M229 104 C165.31 104.54, 98.84 105.71, 26 104 M229 104 C173.59 105.34, 117.38 104.95, 26 104 M26 104 C8.21 104.25, -0.83 96.42, 0 78 M26 104 C10.77 103.86, -1.21 96.9, 0 78 M0 78 C1.19 67.2, 0.61 56.1, 0 26 M0 78 C0.71 62.83, 1.29 48.83, 0 26 M0 26 C0.43 7.66, 7.31 0.48, 26 0 M0 26 C1.33 9.22, 7.74 -1.43, 26 0" stroke="#000000" stroke-width="1" fill="none"></path></g><g transform="translate(381.89285714285757 314.0357142857137) rotate(0 88 13)"><text x="88" y="18" font-family="Virgil, Segoe UI Emoji" font-size="20px" fill="#000000" text-anchor="middle" style="white-space: pre;" direction="ltr">Container registry</text></g><g stroke-linecap="round" transform="translate(766.9285714285716 389.4999999999996) rotate(0 128 51.99999999999997)"><path d="M26 0 M26 0 C83.54 -0.22, 138.48 1.2, 230 0 M26 0 C70.13 0.83, 114.36 0.72, 230 0 M230 0 C248.75 -0.93, 257.92 9.22, 256 26 M230 0 C246.1 -1.64, 255.22 8.69, 256 26 M256 26 C256.61 38.82, 257.23 50.51, 256 78 M256 26 C256.45 41.53, 256.1 58.64, 256 78 M256 78 C255.14 93.91, 248.62 103.76, 230 104 M256 78 C256.73 97.15, 246.46 104.52, 230 104 M230 104 C188.48 105.83, 147.14 106.02, 26 104 M230 104 C187.69 102.33, 147.44 102.62, 26 104 M26 104 C8.01 102.45, -1.73 96.74, 0 78 M26 104 C10.49 105.76, -0.92 94.26, 0 78 M0 78 C-1.44 62.57, 0.31 48.46, 0 26 M0 78 C0.52 64.52, -0.92 52.18, 0 26 M0 26 C-1.64 7.27, 8.97 -0.68, 26 0 M0 26 C2.12 10.47, 8.04 2.06, 26 0" stroke="#000000" stroke-width="1" fill="none"></path></g><g transform="translate(777.4285714285716 402.49999999999943) rotate(0 117 26)"><text x="117" y="18" font-family="Virgil, Segoe UI Emoji" font-size="20px" fill="#000000" text-anchor="middle" style="white-space: pre;" direction="ltr">Azure app services with</text><text x="117" y="44" font-family="Virgil, Segoe UI Emoji" font-size="20px" fill="#000000" text-anchor="middle" style="white-space: pre;" direction="ltr">Data donation app</text></g><g stroke-linecap="round" transform="translate(1127.642857142857 327.99999999999994) rotate(0 127.5 52.00000000000003)"><path d="M26 0 M26 0 C78.79 -2.25, 134.36 -2.14, 229 0 M26 0 C83.07 -2.13, 140.04 -2.2, 229 0 M229 0 C245.5 0.58, 256.53 6.93, 255 26 M229 0 C244.88 -1.96, 254.22 8.13, 255 26 M255 26 C255.5 42.99, 256.38 61.85, 255 78 M255 26 C254.37 42.5, 253.78 59.6, 255 78 M255 78 C254.06 95.79, 247.74 105.76, 229 104 M255 78 C255.36 95.25, 248.4 101.88, 229 104 M229 104 C147.37 103.75, 69.28 105.43, 26 104 M229 104 C169.93 105.67, 112.11 105.63, 26 104 M26 104 C10.25 103.25, -1.57 96.75, 0 78 M26 104 C7.9 106.12, 0.05 96.15, 0 78 M0 78 C0.09 60.07, -0.62 41.55, 0 26 M0 78 C0.72 60.86, 0.04 42.12, 0 26 M0 26 C1.89 9.85, 6.79 0.68, 26 0 M0 26 C1.2 8.94, 6.96 -0.31, 26 0" stroke="#000000" stroke-width="1" fill="none"></path></g><g transform="translate(1143.642857142857 353.99999999999994) rotate(0 111.5 26)"><text x="111.5" y="18" font-family="Virgil, Segoe UI Emoji" font-size="20px" fill="#000000" text-anchor="middle" style="white-space: pre;" direction="ltr">Storage account with </text><text x="111.5" y="44" font-family="Virgil, Segoe UI Emoji" font-size="20px" fill="#000000" text-anchor="middle" style="white-space: pre;" direction="ltr">donated data</text></g><g stroke-linecap="round" transform="translate(1132.8571428571431 493.8214285714282) rotate(0 127.5 52)"><path d="M26 0 M26 0 C106.88 -0.19, 185.29 -0.45, 229 0 M26 0 C100.16 -2.16, 172.62 -1.32, 229 0 M229 0 C247.97 -0.38, 255.07 10.55, 255 26 M229 0 C247.7 -2.16, 255.78 9.86, 255 26 M255 26 C255 41.61, 253.9 58.44, 255 78 M255 26 C255.88 45.11, 255.19 65.3, 255 78 M255 78 C256.89 96.31, 246.14 105.84, 229 104 M255 78 C256.88 93.57, 247.84 102.89, 229 104 M229 104 C178.27 103.27, 129.79 103.63, 26 104 M229 104 C180.58 102.93, 131.17 102.9, 26 104 M26 104 C7.94 103.25, 0.08 95.27, 0 78 M26 104 C8.87 106.21, -1.78 96.65, 0 78 M0 78 C1.04 57.44, -1.78 37.82, 0 26 M0 78 C0.19 60.23, 0 39.8, 0 26 M0 26 C1.8 9.82, 7.21 -0.77, 26 0 M0 26 C-0.35 10.16, 10.69 1.62, 26 0" stroke="#000000" stroke-width="1" fill="none"></path></g><g transform="translate(1148.8571428571431 519.8214285714282) rotate(0 111.5 26)"><text x="111.5" y="18" font-family="Virgil, Segoe UI Emoji" font-size="20px" fill="#000000" text-anchor="middle" style="white-space: pre;" direction="ltr">Storage account with </text><text x="111.5" y="44" font-family="Virgil, Segoe UI Emoji" font-size="20px" fill="#000000" text-anchor="middle" style="white-space: pre;" direction="ltr">logging data</text></g><g stroke-linecap="round" transform="translate(1130.214285714286 196.28571428571422) rotate(0 127.5 52)"><path d="M26 0 M26 0 C77.02 -0.33, 129.67 -1.48, 229 0 M26 0 C72.81 0.78, 119.82 0.98, 229 0 M229 0 C246.33 0.44, 255.54 7.29, 255 26 M229 0 C245.84 1.62, 254.09 7.79, 255 26 M255 26 C253.03 47.07, 256.38 67.02, 255 78 M255 26 C254.68 41.72, 255.81 56.45, 255 78 M255 78 C254.7 93.6, 246.56 104.9, 229 104 M255 78 C256.77 94.85, 244.09 103.03, 229 104 M229 104 C185.45 105.6, 137.23 106.82, 26 104 M229 104 C186.44 104.93, 143.94 105.1, 26 104 M26 104 C9.43 105.18, -0.2 94.62, 0 78 M26 104 C9.53 102.77, -1.11 97.28, 0 78 M0 78 C-1.42 63.34, 0.6 43.62, 0 26 M0 78 C0.02 59.43, 0.59 42.65, 0 26 M0 26 C1.19 9.57, 9.1 1.28, 26 0 M0 26 C-0.98 6.57, 9.16 -2.06, 26 0" stroke="#000000" stroke-width="1" fill="none"></path></g><g transform="translate(1147.714285714286 235.28571428571422) rotate(0 110 13)"><text x="110" y="18" font-family="Virgil, Segoe UI Emoji" font-size="20px" fill="#000000" text-anchor="middle" style="white-space: pre;" direction="ltr">PostgreSQL database</text></g><g stroke-linecap="round" transform="translate(764.2857142857142 145.16071428571422) rotate(0 127.5 52)"><path d="M26 0 M26 0 C85.32 -0.48, 145.35 1.13, 229 0 M26 0 C96.85 -1.4, 167.57 -1.36, 229 0 M229 0 C247.05 -1.09, 253.65 9.39, 255 26 M229 0 C247.16 0.93, 253.01 6.58, 255 26 M255 26 C255.97 41.64, 255.55 58.42, 255 78 M255 26 C253.94 46.73, 254.7 64.65, 255 78 M255 78 C254.76 93.5, 247.51 103.13, 229 104 M255 78 C257.21 93.98, 247.22 105.83, 229 104 M229 104 C165.45 101.34, 104.78 103.2, 26 104 M229 104 C182.23 105.94, 134.65 106.28, 26 104 M26 104 C8.54 103.44, 1.08 95.41, 0 78 M26 104 C6.42 105.86, 1.88 95.3, 0 78 M0 78 C2.11 65.93, 1.24 55.85, 0 26 M0 78 C-0.21 63.85, -0.31 49.29, 0 26 M0 26 C1.47 7.16, 8.78 -1.01, 26 0 M0 26 C1.97 8.27, 8.62 0.36, 26 0" stroke="#000000" stroke-width="1" fill="none"></path></g><g transform="translate(769.7857142857142 171.6607142857141) rotate(0 122 26)"><text x="122" y="18" font-family="Virgil, Segoe UI Emoji" font-size="20px" fill="#000000" text-anchor="middle" style="white-space: pre;" direction="ltr">Azure app services with </text><text x="122" y="44" font-family="Virgil, Segoe UI Emoji" font-size="20px" fill="#000000" text-anchor="middle" style="white-space: pre;" direction="ltr">Webserver</text></g><g stroke-linecap="round" transform="translate(37.82142857142878 340.3392857142858) rotate(0 119.5 57)"><path d="M28.5 0 M28.5 0 C95.16 0.58, 162.08 -2.02, 210.5 0 M210.5 0 C231.07 -1.07, 239.76 10.72, 239 28.5 M239 28.5 C238.47 47.28, 237.91 61.8, 239 85.5 M239 85.5 C238.33 104.79, 231.12 112.91, 210.5 114 M210.5 114 C138.29 113.34, 70.15 111.86, 28.5 114 M28.5 114 C7.63 112.91, -1.57 103.42, 0 85.5 M0 85.5 C-1.68 65.39, -1.69 46.06, 0 28.5 M0 28.5 C-0.43 11.41, 8.65 1.48, 28.5 0" stroke="#000000" stroke-width="1.5" fill="none" stroke-dasharray="8 9"></path></g><g transform="translate(82.82142857142878 384.5892857142858) rotate(0 74.5 13)"><text x="74.5" y="18" font-family="Virgil, Segoe UI Emoji" font-size="20px" fill="#000000" text-anchor="middle" style="white-space: pre;" direction="ltr">Cost monitoring</text></g><g stroke-linecap="round"><g transform="translate(610.2902959282221 330.19642857142804) rotate(0 73.08923922741474 56.86451189472143)"><path d="M-0.51 -0.43 C23.45 18.51, 120.06 95.24, 144.53 114.32 M1.43 -1.71 C25.67 17.31, 122.6 96.02, 146.69 115.44" stroke="#000000" stroke-width="1" fill="none"></path></g><g transform="translate(610.2902959282221 330.19642857142804) rotate(0 73.08923922741474 56.86451189472143)"><path d="M117.59 103.9 C127.48 110.62, 137.45 114.45, 148 114.48 M118.19 105.63 C124.52 107.36, 132.66 110, 145.9 116.12" stroke="#000000" stroke-width="1" fill="none"></path></g><g transform="translate(610.2902959282221 330.19642857142804) rotate(0 73.08923922741474 56.86451189472143)"><path d="M130.5 87.95 C135.72 100.49, 140.94 110.19, 148 114.48 M131.09 89.68 C134.23 95.37, 139.26 101.87, 145.9 116.12" stroke="#000000" stroke-width="1" fill="none"></path></g></g><mask></mask><g stroke-linecap="round"><g transform="translate(500.0712999222103 268.14454633863994) rotate(0 128.7335659958344 -43.32687396839768)"><path d="M0.3 0.16 C43.36 -14.43, 215.73 -72.25, 258.46 -86.81 M-0.99 -0.8 C41.97 -15.32, 214.6 -71.41, 257.96 -85.69" stroke="#000000" stroke-width="1" fill="none"></path></g><g transform="translate(500.0712999222103 268.14454633863994) rotate(0 128.7335659958344 -43.32687396839768)"><path d="M234.63 -65.75 C240.21 -74.43, 246.85 -78.33, 257.1 -87.18 M235 -66.93 C240.31 -71.96, 245.58 -76.58, 258.26 -86.26" stroke="#000000" stroke-width="1" fill="none"></path></g><g transform="translate(500.0712999222103 268.14454633863994) rotate(0 128.7335659958344 -43.32687396839768)"><path d="M228.25 -85.26 C235.92 -87.93, 244.53 -85.81, 257.1 -87.18 M228.62 -86.44 C235.48 -86.76, 242.29 -86.66, 258.26 -86.26" stroke="#000000" stroke-width="1" fill="none"></path></g></g><mask></mask><g stroke-linecap="round"><g transform="translate(890.0874654292252 257.3392857142858) rotate(0 0.5615347926216145 62.666674178878594)"><path d="M-1.07 0.53 C-0.83 21.36, 1.64 103.68, 2.2 124.12 M0.56 -0.24 C0.63 20.85, 1.33 104.88, 1.55 125.58" stroke="#000000" stroke-width="1" fill="none"></path></g><g transform="translate(890.0874654292252 257.3392857142858) rotate(0 0.5615347926216145 62.666674178878594)"><path d="M-8.09 98.42 C-5.62 108.85, -3.35 118.83, 3.5 125.57 M-8.13 96.8 C-4.69 108.77, -1.67 119.15, 1.05 124.7" stroke="#000000" stroke-width="1" fill="none"></path></g><g transform="translate(890.0874654292252 257.3392857142858) rotate(0 0.5615347926216145 62.666674178878594)"><path d="M12.43 98.24 C7.44 108.54, 2.26 118.59, 3.5 125.57 M12.39 96.62 C7.98 108.74, 3.17 119.2, 1.05 124.7" stroke="#000000" stroke-width="1" fill="none"></path></g></g><mask></mask><g stroke-linecap="round"><g transform="translate(1033.0357142857142 430.6923060347034) rotate(0 41.33755603325426 -9.40729458263948)"><path d="M0.16 -0.23 C14.09 -3.14, 70.05 -15.6, 83.9 -18.59 M-1.22 -1.39 C12.63 -3.98, 69.51 -13.84, 83.49 -16.97" stroke="#000000" stroke-width="1" fill="none"></path></g><g transform="translate(1033.0357142857142 430.6923060347034) rotate(0 41.33755603325426 -9.40729458263948)"><path d="M57.4 0.22 C66.47 -5.89, 75.5 -11.49, 84.21 -18.64 M58.68 -1.08 C63.72 -5.4, 71.13 -10.2, 83.16 -17.41" stroke="#000000" stroke-width="1" fill="none"></path></g><g transform="translate(1033.0357142857142 430.6923060347034) rotate(0 41.33755603325426 -9.40729458263948)"><path d="M53.48 -19.92 C63.62 -19.53, 73.92 -18.64, 84.21 -18.64 M54.76 -21.22 C60.76 -20.43, 69.17 -20.1, 83.16 -17.41" stroke="#000000" stroke-width="1" fill="none"></path></g></g><mask></mask><g stroke-linecap="round"><g transform="translate(1248.7623229918506 445.910714285714) rotate(0 -0.17081215962298302 20.37310757720843)"><path d="M0.77 -0.78 C0.59 5.78, 0.04 33.17, -0.38 39.99 M-0.29 1.42 C-0.64 8.14, -1.24 34.84, -1.08 41.53" stroke="#000000" stroke-width="1" fill="none"></path></g><g transform="translate(1248.7623229918506 445.910714285714) rotate(0 -0.17081215962298302 20.37310757720843)"><path d="M-9.17 23.5 C-5.37 27.87, -2.73 37.18, 0.03 42.91 M-8.63 22.25 C-7 28.52, -4.18 32.17, -0.26 41.86" stroke="#000000" stroke-width="1" fill="none"></path></g><g transform="translate(1248.7623229918506 445.910714285714) rotate(0 -0.17081215962298302 20.37310757720843)"><path d="M4.52 23.54 C3.45 27.98, 1.24 37.28, 0.03 42.91 M5.05 22.3 C2.9 28.44, 1.95 32.07, -0.26 41.86" stroke="#000000" stroke-width="1" fill="none"></path></g></g><mask></mask><g stroke-linecap="round"><g transform="translate(1115.892857142857 249.48594978350582) rotate(0 -95.83486397194883 62.95791522676677)"><path d="M0.55 -0.23 C-31.47 20.73, -159.4 105.03, -191.29 126 M-0.62 -1.4 C-32.86 19.71, -160.45 106.01, -192.22 127.31" stroke="#000000" stroke-width="1" fill="none"></path></g><g transform="translate(1115.892857142857 249.48594978350582) rotate(0 -95.83486397194883 62.95791522676677)"><path d="M-174.95 103.1 C-181.74 112.99, -188.98 119.01, -192.6 128.17 M-174.32 103.85 C-181.1 112.42, -189.12 121.78, -192.36 127.5" stroke="#000000" stroke-width="1" fill="none"></path></g><g transform="translate(1115.892857142857 249.48594978350582) rotate(0 -95.83486397194883 62.95791522676677)"><path d="M-163.49 120.12 C-174.53 123.79, -186 123.54, -192.6 128.17 M-162.85 120.87 C-174.1 122.59, -186.68 125.18, -192.36 127.5" stroke="#000000" stroke-width="1" fill="none"></path></g></g><mask></mask><g stroke-linecap="round" transform="translate(795.8928571428569 777.9107142857141) rotate(0 105 89.00000000000006)"><path d="M132.5 22.5 M132.5 22.5 C149.91 35.22, 163.6 48.2, 183.5 67.5 M132.5 22.5 C142.82 33.23, 155.18 42.71, 183.5 67.5 M183.5 67.5 C210.76 88.84, 208.88 91.61, 183.5 112.5 M183.5 67.5 C212.17 88.67, 209.57 91.22, 183.5 112.5 M183.5 112.5 C166.92 126.61, 149.29 142.79, 132.5 155.5 M183.5 112.5 C171.6 121.91, 159.68 131.48, 132.5 155.5 M132.5 155.5 C106.28 178.91, 105.49 178.19, 79.5 155.5 M132.5 155.5 C105.82 177.54, 105.81 180.05, 79.5 155.5 M79.5 155.5 C65.94 141.88, 51.08 132.83, 26.5 112.5 M79.5 155.5 C64.53 142.97, 48.17 130.81, 26.5 112.5 M26.5 112.5 C-0.5 91.04, -0.57 90.22, 26.5 67.5 M26.5 112.5 C-0.51 89.97, 1.54 92.03, 26.5 67.5 M26.5 67.5 C42.66 52.95, 61.82 36.9, 79.5 22.5 M26.5 67.5 C45.85 50.96, 64.8 34.05, 79.5 22.5 M79.5 22.5 C104.03 1.41, 104.33 0.38, 132.5 22.5 M79.5 22.5 C106.12 -1.45, 106.14 1.66, 132.5 22.5" stroke="#000000" stroke-width="1" fill="none"></path></g><g transform="translate(827.8928571428569 840.9107142857141) rotate(0 73 26)"><text x="73" y="18" font-family="Virgil, Segoe UI Emoji" font-size="20px" fill="#000000" text-anchor="middle" style="white-space: pre;" direction="ltr">Device of the </text><text x="73" y="44" font-family="Virgil, Segoe UI Emoji" font-size="20px" fill="#000000" text-anchor="middle" style="white-space: pre;" direction="ltr">participant</text></g><g stroke-linecap="round"><g transform="translate(903.764532824621 765.3496273606461) rotate(0 -2.2970644866111343 -133.43748946469157)"><path d="M0.23 0.19 C-0.49 -44.51, -3.54 -222.73, -4.17 -267.06 M-1.1 -0.76 C-1.95 -44.79, -4.4 -221.28, -4.83 -265.78" stroke="#000000" stroke-width="1" fill="none"></path></g><g transform="translate(903.764532824621 765.3496273606461) rotate(0 -2.2970644866111343 -133.43748946469157)"><path d="M6.08 -236.81 C1.37 -244.58, 0.13 -255.16, -5.84 -266.64 M6.43 -237.65 C3.38 -245.62, 0.2 -251.76, -5.74 -266.51" stroke="#000000" stroke-width="1" fill="none"></path></g><g transform="translate(903.764532824621 765.3496273606461) rotate(0 -2.2970644866111343 -133.43748946469157)"><path d="M-14.43 -236.56 C-12.68 -244.45, -7.45 -255.11, -5.84 -266.64 M-14.09 -237.4 C-11.99 -245.57, -10.02 -251.78, -5.74 -266.51" stroke="#000000" stroke-width="1" fill="none"></path></g></g><mask></mask></svg>